<?xml version="1.0" encoding="UTF-8" standalone="no"?>
<svg
   xmlns:dc="http://purl.org/dc/elements/1.1/"
   xmlns:cc="http://creativecommons.org/ns#"
   xmlns:rdf="http://www.w3.org/1999/02/22-rdf-syntax-ns#"
   xmlns:svg="http://www.w3.org/2000/svg"
   xmlns="http://www.w3.org/2000/svg"
   viewBox="0 0 231.21333 110.25333"
   height="110.25333"
   width="231.21333"
   xml:space="preserve"
   id="svg2"
   version="1.1"><metadata
     id="metadata8"><rdf:RDF><cc:Work
         rdf:about=""><dc:format>image/svg+xml</dc:format><dc:type
           rdf:resource="http://purl.org/dc/dcmitype/StillImage" /></cc:Work></rdf:RDF></metadata><defs
     id="defs6" /><g
     transform="matrix(1.3333333,0,0,-1.3333333,0,110.25333)"
     id="g10"><g
       transform="scale(0.1)"
       id="g12"><path
         id="path14"
         style="fill:#ed1c24;fill-opacity:1;fill-rule:evenodd;stroke:none"
         d="M 0,826.902 H 102.336 V 710.996 H 214.16 V 826.902 H 316.949 V 495.676 H 214.16 v 133.98 H 102.336 V 495.676 H 0 v 331.226" /><path
         id="path16"
         style="fill:#ed1c24;fill-opacity:1;fill-rule:evenodd;stroke:none"
         d="m 580.758,550.352 h -116.57 l -16.04,-54.676 H 343.555 L 468.027,826.902 H 579.629 L 704.105,495.676 H 597.02 Z m -21.461,71.621 -36.598,119.07 -36.371,-119.07 z" /><path
         id="path18"
         style="fill:#ed1c24;fill-opacity:1;fill-rule:evenodd;stroke:none"
         d="m 729.121,826.902 h 191.57 c 31.926,0 56.411,-7.91 73.43,-23.722 17.169,-15.817 25.749,-35.403 25.749,-58.746 0,-19.586 -6.1,-36.379 -18.3,-50.387 -8.132,-9.34 -20.039,-16.719 -35.691,-22.137 23.789,-5.73 41.261,-15.594 52.411,-29.601 11.3,-13.864 16.94,-31.332 16.94,-52.418 0,-17.172 -4,-32.61 -11.97,-46.317 -7.99,-13.711 -18.9,-24.562 -32.764,-32.535 -8.582,-4.969 -21.531,-8.59 -38.855,-10.844 -23.036,-3.019 -38.328,-4.519 -45.86,-4.519 H 729.121 Z M 832.363,696.988 h 44.512 c 15.957,0 27.031,2.707 33.203,8.133 6.328,5.57 9.492,13.551 9.492,23.949 0,9.637 -3.164,17.164 -9.492,22.594 -6.172,5.422 -17.019,8.137 -32.527,8.137 h -45.188 z m 0,-130.144 h 52.188 c 17.617,0 30.051,3.086 37.273,9.265 7.231,6.321 10.844,14.758 10.844,25.309 0,9.781 -3.613,17.613 -10.844,23.492 -7.078,6.028 -19.578,9.035 -37.5,9.039 h -51.961 v -67.105" /><path
         id="path20"
         style="fill:#ed1c24;fill-opacity:1;fill-rule:evenodd;stroke:none"
         d="m 1080.59,826.902 h 274.24 V 756.18 h -171.69 v -52.641 h 159.27 v -67.555 h -159.27 v -65.3 h 176.66 v -75.008 h -279.21 v 331.226" /><path
         id="path22"
         style="fill:#ed1c24;fill-opacity:1;fill-rule:evenodd;stroke:none"
         d="m 1408.32,495.676 v 331.226 h 170.57 c 31.62,0 55.8,-2.714 72.52,-8.132 16.72,-5.426 30.18,-15.524 40.43,-30.278 10.24,-14.617 15.36,-32.461 15.37,-53.547 0,-18.379 -3.93,-34.269 -11.76,-47.675 -7.83,-13.258 -18.59,-24.028 -32.31,-32.309 -8.73,-5.273 -20.71,-9.645 -35.91,-13.106 12.19,-4.062 21.08,-8.136 26.66,-12.199 3.76,-2.715 9.18,-8.515 16.27,-17.394 7.22,-8.895 12.04,-15.75 14.45,-20.563 l 49.47,-96.023 h -115.66 l -54.67,101.219 c -6.93,13.105 -13.11,21.613 -18.53,25.531 -7.38,5.117 -15.74,7.676 -25.07,7.679 h -9.04 V 495.676 Z m 102.79,197.019 h 43.15 c 4.67,0 13.7,1.504 27.11,4.516 6.77,1.359 12.27,4.82 16.49,10.394 4.37,5.571 6.54,11.969 6.55,19.208 0,10.687 -3.38,18.898 -10.16,24.621 -6.78,5.722 -19.5,8.586 -38.19,8.589 h -44.95 v -67.328" /><path
         id="path24"
         style="fill:#ed1c24;fill-opacity:1;fill-rule:evenodd;stroke:none"
         d="M 0,337.098 H 311.492 V 255.313 H 206.98 V 5.87891 H 104.512 V 255.313 H 0 v 81.785" /><path
         id="path26"
         style="fill:#ed1c24;fill-opacity:1;fill-rule:evenodd;stroke:none"
         d="m 666.324,337.098 h 102.25 V 139.637 c 0,-19.586 -3.094,-38.114 -9.277,-55.5862 C 753.262,66.7266 743.691,51.5117 730.57,38.4063 717.598,25.4609 703.945,16.3398 689.625,11.0742 669.719,3.69141 645.813,0.0078125 617.914,0 601.777,0 584.133,1.13281 564.98,3.38672 c -19,2.26562 -34.914,6.70308 -47.73,13.33208 -12.82,6.789 -24.582,16.3359 -35.285,28.7031 -10.563,12.3398 -17.805,25.0664 -21.723,38.1797 -6.332,21.0864 -9.496,39.7574 -9.496,56.0354 V 337.098 H 552.992 V 134.891 c 0,-18.075 4.977,-32.246 14.93,-42.4808 10.105,-10.0977 24.051,-15.1368 41.851,-15.1368 17.645,0 31.442,4.9727 41.399,14.9141 10.098,10.0855 15.144,24.3245 15.152,42.7035 v 202.207" /><path
         id="path28"
         style="fill:#ed1c24;fill-opacity:1;fill-rule:evenodd;stroke:none"
         d="M 930.449,5.87891 V 337.098 h 170.791 c 31.67,0 55.87,-2.703 72.61,-8.125 16.75,-5.426 30.23,-15.528 40.5,-30.282 10.24,-14.609 15.37,-32.461 15.38,-53.546 0,-18.379 -3.93,-34.278 -11.77,-47.676 -7.84,-13.25 -18.62,-24.024 -32.34,-32.301 -8.75,-5.277 -20.75,-9.652 -35.97,-13.109 12.22,-4.071 21.1,-8.133 26.69,-12.196 3.77,-2.715 9.2,-8.515 16.29,-17.402 7.23,-8.887 12.06,-15.742 14.48,-20.559 L 1256.64,5.87891 H 1140.82 L 1086.08,107.098 c -6.94,13.105 -13.12,21.613 -18.55,25.531 -7.39,5.113 -15.76,7.672 -25.11,7.684 h -9.04 V 5.87891 Z M 1033.38,202.898 h 43.2 c 4.67,0 13.72,1.504 27.14,4.512 6.79,1.36 12.3,4.817 16.52,10.403 4.37,5.566 6.56,11.96 6.56,19.199 0,10.691 -3.39,18.906 -10.18,24.629 -6.79,5.722 -19.53,8.582 -38.23,8.582 h -45.01 v -67.325" /><path
         id="path30"
         style="fill:#ed1c24;fill-opacity:1;fill-rule:evenodd;stroke:none"
         d="m 1382.55,337.098 h 102.48 V 211.934 l 107.45,125.164 h 136.17 L 1607.86,212.156 1734.08,5.87891 H 1607.86 L 1537.96,142.117 1485.03,86.7656 V 5.87891 H 1382.55 V 337.098" /><path
         id="path32"
         style="fill:#231f20;fill-opacity:1;fill-rule:nonzero;stroke:none"
         d="M 0,456.227 H 1734.08 V 380.496 H 0 v 75.731" /></g></g></svg>