<?xml version="1.0" standalone="no"?>
<!DOCTYPE svg PUBLIC "-//W3C//DTD SVG 20010904//EN"
 "http://www.w3.org/TR/2001/REC-SVG-20010904/DTD/svg10.dtd">
<svg version="1.0" xmlns="http://www.w3.org/2000/svg"
 width="764.000000pt" height="800.000000pt" viewBox="0 0 764.000000 800.000000"
 preserveAspectRatio="xMidYMid meet">

<g transform="translate(0.000000,800.000000) scale(0.100000,-0.100000)"
fill="#000000" stroke="none">
<path d="M798 5556 c-21 -19 -43 -25 -105 -30 -123 -11 -169 -23 -182 -52 -16
-36 -14 -41 20 -75 28 -28 30 -34 25 -74 -5 -31 -18 -54 -46 -84 -27 -28 -45
-62 -62 -113 -18 -57 -33 -82 -70 -119 l-48 -48 30 -24 c16 -14 54 -37 85 -52
30 -15 53 -31 50 -35 -3 -4 -29 -13 -57 -20 -85 -19 -89 -21 -97 -43 -15 -39
-23 -129 -11 -122 5 3 10 -1 10 -11 0 -15 2 -15 28 2 38 25 151 86 187 102 28
12 29 11 10 -3 -11 -9 -45 -30 -76 -46 -82 -44 -120 -87 -130 -147 -4 -29 -22
-72 -44 -106 l-37 -58 24 -25 c22 -23 27 -24 93 -18 39 3 100 12 138 19 37 7
67 9 67 5 0 -5 -18 -32 -40 -61 -22 -29 -40 -60 -40 -69 0 -9 18 -43 40 -75
50 -74 52 -107 8 -134 -18 -11 -45 -22 -60 -25 -15 -4 -28 -10 -28 -14 0 -15
37 -41 58 -41 25 0 38 -35 27 -72 -10 -30 -23 -38 -67 -38 -59 0 -67 6 -61 50
5 34 1 45 -32 84 -54 66 -75 59 -75 -24 0 -54 -8 -69 -46 -85 -19 -8 -34 -19
-34 -26 0 -36 110 -77 174 -65 32 6 37 3 76 -43 25 -29 57 -55 76 -61 48 -16
84 -48 84 -75 0 -13 -16 -42 -35 -65 -33 -40 -35 -45 -35 -119 0 -83 9 -101
58 -116 32 -9 17 -25 -24 -25 -44 0 -60 -31 -37 -71 l15 -25 139 4 c87 3 139
1 139 -5 0 -6 -54 -34 -119 -63 -102 -45 -118 -55 -106 -66 16 -17 123 -19
178 -3 59 16 65 6 24 -36 -20 -21 -37 -40 -37 -42 0 -14 34 -34 49 -30 11 2
37 1 59 -3 52 -9 70 2 78 48 8 44 20 61 53 73 19 8 29 5 45 -9 31 -28 138 -96
161 -103 11 -3 34 3 50 13 17 10 33 18 37 18 4 0 6 -42 5 -94 -2 -86 0 -96 21
-119 27 -28 105 -53 212 -66 l73 -10 65 39 c55 33 68 37 90 29 15 -6 41 -8 58
-4 28 5 33 11 43 50 6 24 11 57 11 74 0 20 9 37 31 55 29 25 36 26 150 26
l120 0 107 -45 c90 -39 117 -56 172 -109 66 -65 193 -150 288 -194 51 -23 56
-23 155 -12 277 30 285 32 390 89 54 29 119 69 144 88 114 87 149 92 300 38
54 -19 107 -35 117 -35 11 0 70 27 132 60 62 33 121 60 132 60 24 0 42 -44 42
-104 0 -38 -6 -46 -85 -122 -70 -68 -85 -88 -85 -112 0 -58 76 -122 143 -122
40 0 55 15 90 92 22 50 31 59 75 78 l50 21 -16 49 c-21 66 -7 99 59 135 43 23
57 26 102 20 29 -4 86 -18 127 -31 41 -13 90 -24 108 -24 40 0 214 42 296 72
65 24 95 19 169 -30 34 -23 46 -25 140 -24 56 1 126 6 156 12 30 5 78 10 107
10 34 0 79 10 121 26 38 14 118 43 178 64 61 21 128 45 150 53 51 21 96 21
192 1 l78 -15 110 41 c61 22 126 51 146 65 32 21 41 22 75 13 22 -5 52 -12 68
-15 33 -7 149 11 219 34 42 13 59 13 135 2 105 -16 153 -16 209 2 23 7 45 10
49 6 4 -3 9 -30 13 -60 4 -33 15 -64 29 -82 l24 -30 26 32 c15 17 38 47 52 67
15 22 36 39 53 43 15 3 27 8 27 11 0 3 -15 28 -32 56 -30 46 -33 58 -33 129 0
67 -3 81 -20 93 -18 13 -20 27 -20 137 l0 122 -59 140 c-61 145 -86 218 -86
247 0 12 23 30 70 53 54 27 74 43 89 73 24 47 48 68 88 77 44 9 49 22 22 52
-73 78 -174 122 -278 124 -31 0 -74 3 -96 7 l-39 7 -13 110 c-7 61 -11 138 -7
173 4 48 2 69 -10 87 -22 33 -115 102 -157 116 -19 7 -59 35 -89 63 -121 114
-151 125 -215 81 -46 -31 -137 -65 -174 -65 -15 0 -53 5 -85 11 -43 9 -61 19
-76 39 -12 17 -32 29 -50 32 -27 4 -34 -1 -64 -42 -40 -55 -131 -122 -243
-179 -66 -33 -93 -41 -137 -41 -29 0 -70 -7 -89 -15 -54 -22 -71 -20 -211 37
-123 49 -131 51 -170 39 -92 -27 -254 -60 -295 -61 -24 0 -93 16 -152 35 -78
25 -124 34 -166 33 -69 -1 -109 14 -190 74 -98 72 -109 75 -190 40 -101 -43
-111 -37 -148 93 -21 74 -26 80 -89 113 -38 19 -72 27 -131 31 -78 6 -80 7
-83 33 -2 15 2 37 8 48 9 17 8 25 -5 39 -14 17 -20 17 -73 4 -31 -8 -93 -20
-137 -28 -44 -7 -93 -18 -108 -24 -39 -15 -110 -13 -182 5 -33 8 -123 17 -200
20 l-140 6 -145 -50 c-131 -44 -327 -126 -405 -169 -155 -85 -176 -93 -238
-93 -34 0 -102 7 -151 15 -48 8 -188 19 -310 25 -121 6 -234 16 -250 21 -53
17 -62 12 -96 -52 -30 -56 -31 -62 -16 -78 22 -24 163 -80 221 -88 25 -3 45
-9 45 -13 0 -4 -48 -10 -106 -13 -88 -6 -284 -41 -284 -52 0 -1 24 -10 53 -20
44 -14 136 -61 185 -93 10 -7 1 -40 -44 -153 -31 -79 -60 -148 -64 -152 -4 -5
-30 8 -56 29 -76 58 -129 78 -209 78 -80 1 -113 -14 -145 -67 -35 -57 -19
-125 38 -165 15 -11 98 -44 185 -72 229 -76 299 -134 348 -288 31 -100 30
-260 -4 -364 -72 -226 -261 -358 -512 -358 -169 0 -321 61 -464 187 l-43 38
87 158 c48 86 88 157 90 157 2 0 34 -32 73 -70 148 -148 315 -177 405 -71 63
76 34 200 -58 248 -16 9 -79 33 -140 53 -154 52 -222 87 -281 145 -67 66 -95
138 -101 260 -9 159 41 299 142 401 47 47 159 114 194 114 9 0 24 7 35 15 16
12 16 16 5 28 -23 22 -50 28 -95 21 -56 -8 -77 -24 -78 -60 -1 -42 -23 -41
-115 5 -88 45 -114 48 -184 27 -72 -22 -46 -1 41 33 152 59 217 93 270 143
l53 50 77 -8 c42 -4 100 -8 127 -9 28 -1 82 -9 120 -18 84 -20 135 -21 158 -4
9 6 30 30 47 51 28 36 29 40 14 57 -9 10 -30 21 -46 25 -45 9 -197 81 -236
110 -18 14 -46 49 -62 77 -29 48 -30 57 -24 120 5 59 4 70 -12 82 -27 21 -88
18 -126 -5 -50 -29 -106 -18 -124 26 -27 64 -80 80 -126 40z m2416 -683 c81
-18 165 -54 256 -110 l66 -40 184 -6 c249 -7 346 -34 435 -123 67 -68 90 -135
90 -269 0 -94 -4 -116 -22 -151 -37 -70 -72 -102 -146 -139 -42 -20 -63 -35
-51 -35 33 0 105 -28 147 -57 50 -35 90 -94 117 -174 19 -55 22 -80 18 -179
-4 -103 -7 -122 -35 -182 -53 -112 -138 -179 -275 -214 -50 -13 -136 -17 -420
-21 l-358 -5 -2 183 -3 183 -73 13 c-116 19 -106 8 -157 171 -25 81 -63 200
-84 265 -21 64 -36 117 -34 117 2 0 27 -18 56 -40 58 -43 258 -150 282 -150
13 0 15 51 15 405 l0 405 98 0 c111 1 107 12 -11 29 -113 16 -219 13 -324 -8
-108 -23 -183 -60 -225 -113 -16 -21 -33 -38 -38 -38 -5 0 -16 25 -25 55 -8
30 -19 55 -24 55 -4 0 25 -105 65 -232 40 -128 145 -466 234 -751 88 -285 163
-524 167 -533 5 -12 -21 -14 -188 -12 l-193 3 -34 138 -34 137 -271 -2 -270
-3 -36 -137 -35 -138 -188 0 c-123 0 -188 4 -188 10 0 6 66 222 146 481 l146
471 -38 81 c-50 106 -52 180 -8 303 33 93 38 100 117 166 l58 48 111 0 c104 0
116 2 201 36 50 20 120 52 155 72 56 31 73 35 150 38 48 2 123 8 167 13 97 11
216 5 309 -16z m2312 -923 l241 -775 -185 -3 c-102 -1 -189 1 -192 5 -4 5 -22
68 -41 141 l-33 132 -270 -2 -270 -3 -36 -135 -35 -135 -192 -3 -192 -2 14 42
c30 92 155 495 155 501 0 3 -26 -7 -57 -23 -96 -48 -97 -48 -109 10 -6 28 -8
52 -6 55 3 3 19 5 36 5 18 0 63 15 102 34 l70 33 68 218 c67 214 68 218 49
237 -13 13 -37 20 -75 22 -38 2 -66 10 -87 25 -22 16 -54 25 -112 31 -78 7
-124 28 -105 47 4 5 64 8 134 8 83 1 127 5 129 12 6 16 -44 113 -75 146 -14
15 -22 27 -18 27 4 0 67 -31 140 -70 73 -38 137 -70 142 -70 5 0 24 51 43 113
18 61 37 122 42 135 l9 22 237 -2 238 -3 241 -775z m694 470 l0 -300 253 2
252 3 0 295 0 295 193 3 192 2 0 -770 0 -770 -194 0 -194 0 1 310 2 310 -252
0 -253 0 0 -310 0 -309 -191 -3 c-105 -2 -193 -1 -195 1 -2 2 -4 350 -4 773
l0 768 195 0 195 0 0 -300z"/>
<path d="M2402 4392 c-10 -50 -147 -559 -167 -622 -6 -19 -2 -20 127 -20 l133
0 -75 45 c-41 24 -87 54 -103 67 l-28 23 51 180 c57 202 90 336 90 365 0 41
-16 18 -28 -38z"/>
<path d="M3570 4255 l0 -155 75 0 c102 0 171 16 209 50 30 27 31 32 31 104 0
69 -2 77 -28 104 -36 38 -92 52 -201 52 l-86 0 0 -155z"/>
<path d="M3570 3655 c0 -103 4 -165 10 -165 6 0 10 57 10 150 l0 150 33 -6
c17 -3 75 -15 129 -25 102 -20 178 -25 178 -11 0 16 -38 44 -77 58 -24 8 -84
13 -160 14 l-123 0 0 -165z"/>
<path d="M3648 3493 c28 -2 76 -2 105 0 28 2 5 3 -53 3 -58 0 -81 -1 -52 -3z"/>
<path d="M5031 4393 c-10 -45 -143 -542 -167 -625 -5 -17 8 -18 180 -18 129 0
186 3 186 11 0 6 -33 132 -74 279 -41 148 -80 297 -87 332 -6 35 -15 67 -19
71 -4 4 -12 -18 -19 -50z m65 -180 c-7 -8 -76 28 -76 40 0 28 15 26 47 -5 18
-17 31 -33 29 -35z"/>
<path d="M1180 4785 c-11 -13 -8 -15 15 -15 23 0 26 2 15 15 -7 8 -14 15 -15
15 -1 0 -8 -7 -15 -15z"/>
<path d="M130 4734 c-14 -14 -47 -45 -74 -70 l-48 -45 23 -25 c13 -14 34 -24
50 -24 33 0 128 46 136 66 9 24 -7 84 -28 105 -24 24 -29 24 -59 -7z"/>
<path d="M236 4531 c-14 -15 -15 -24 -6 -40 13 -25 23 -26 44 -5 20 20 20 27
-2 48 -18 15 -20 15 -36 -3z"/>
</g>
</svg>
