<?xml version="1.0" standalone="no"?>
<!DOCTYPE svg PUBLIC "-//W3C//DTD SVG 20010904//EN"
 "http://www.w3.org/TR/2001/REC-SVG-20010904/DTD/svg10.dtd">
<svg version="1.0" xmlns="http://www.w3.org/2000/svg"
 width="1200.000000pt" height="630.000000pt" viewBox="0 0 1200.000000 630.000000"
 preserveAspectRatio="xMidYMid meet">

<g transform="translate(0.000000,630.000000) scale(0.100000,-0.100000)"
fill="#000000" stroke="none">
<path d="M0 3150 l0 -3150 6000 0 6000 0 0 3150 0 3150 -6000 0 -6000 0 0
-3150z m6177 1202 c184 -40 304 -100 408 -206 112 -113 166 -236 186 -423 19
-181 -15 -360 -93 -490 -44 -73 -173 -195 -278 -264 -47 -30 -155 -95 -240
-144 -85 -48 -187 -110 -227 -137 -117 -81 -193 -174 -193 -238 0 -20 4 -20
505 -20 l505 0 0 -295 0 -295 -875 0 -875 0 0 294 c0 309 7 381 49 500 30 86
77 160 150 239 105 112 206 180 616 418 143 83 227 164 249 239 31 105 10 188
-60 231 -34 21 -54 24 -152 28 -182 5 -299 -29 -411 -120 -29 -24 -59 -48 -66
-53 -10 -7 -70 45 -219 189 -113 109 -206 203 -206 209 0 14 65 77 130 128
143 111 340 189 560 223 134 20 414 13 537 -13z m-1362 -335 l0 -308 -287 0
-288 -1 0 -934 0 -934 -355 0 -355 0 0 936 0 936 -282 -3 -283 -3 -3 312 -2
312 927 -2 928 -3 0 -308z m3295 296 c0 -9 -63 -257 -141 -552 -77 -295 -156
-597 -175 -671 -20 -74 -42 -156 -49 -182 l-14 -48 139 0 140 0 2 413 3 412
308 3 307 2 0 -415 0 -415 145 0 145 0 0 -305 0 -305 -145 0 -145 0 0 -205 0
-205 -315 0 -315 0 0 205 0 205 -460 0 -460 0 0 296 0 295 190 732 c105 403
192 738 195 745 3 9 78 12 325 12 291 0 320 -2 320 -17z"/>
</g>
</svg>
